<?xml version="1.0" encoding="utf-8"?><svg width="52" height="72" viewBox="0 0 52 72" xmlns="http://www.w3.org/2000/svg" xmlns:xlink="http://www.w3.org/1999/xlink"><svg class="apreloader__icon" width="52" height="35.09" viewBox="-176.7 -176.7 918.83 620.11" id="main_logo_2" xmlns="http://www.w3.org/2000/svg"><linearGradient id="aa"><stop offset="0%" stop-color="#00cbbf"/><stop offset="100%" stop-color="#1c65eb"/></linearGradient><path clip-rule="evenodd" fill="none" stroke="url(#aa)" stroke-width="40" stroke-linecap="round" stroke-linejoin="round" stroke-miterlimit="10" d="M30.961 54.217c9.934-13.09 32.423-24.59 53.962-24.59 39.488 0 71.5 32 71.5 71.5 0 93.5-128 39.5-128 139.5h256c37 0 70-31 70-74v-76c0-34-35-62-73-62h-52v139" stroke-dasharray="1123,1125" stroke-dashoffset="1125"/><path fill="none" stroke="#000" stroke-width="40" stroke-linecap="round" stroke-miterlimit="10" stroke-dasharray="152,154" stroke-dashoffset="154" d="M428.422 87.626v152"/><path fill="none" stroke="#000" stroke-width="40" stroke-linecap="round" stroke-miterlimit="10" stroke-dasharray="1,3" stroke-dashoffset="3" d="M428.422 26.626v1"/><path fill="none" stroke="#000" stroke-width="40" stroke-linecap="round" stroke-miterlimit="10" d="M538.422 238.626s-37 2.154-37-40v-171" stroke-dasharray="233,235" stroke-dashoffset="235"/><path fill="none" stroke="#000" stroke-width="40" stroke-linecap="round" stroke-miterlimit="10" stroke-dasharray="39,41" stroke-dashoffset="41" d="M502.422 70.626h39"/></svg><svg class="bpreloader__icon" width="52" height="35.09" viewBox="-176.7 -176.7 918.83 620.11" id="main_logo_3" y="36" xmlns="http://www.w3.org/2000/svg"><linearGradient id="ba"><stop offset="0%" stop-color="#00cbbf"/><stop offset="100%" stop-color="#1c65eb"/></linearGradient><path clip-rule="evenodd" fill="none" stroke="url(#ba)" stroke-width="40" stroke-linecap="round" stroke-linejoin="round" stroke-miterlimit="10" d="M30.961 54.217c9.934-13.09 32.423-24.59 53.962-24.59 39.488 0 71.5 32 71.5 71.5 0 93.5-128 39.5-128 139.5h256c37 0 70-31 70-74v-76c0-34-35-62-73-62h-52v139" stroke-dasharray="1123,1125" stroke-dashoffset="1125"/><path fill="none" stroke="#000" stroke-width="40" stroke-linecap="round" stroke-miterlimit="10" stroke-dasharray="152,154" stroke-dashoffset="154" d="M428.422 87.626v152"/><path fill="none" stroke="#000" stroke-width="40" stroke-linecap="round" stroke-miterlimit="10" stroke-dasharray="1,3" stroke-dashoffset="3" d="M428.422 26.626v1"/><path fill="none" stroke="#000" stroke-width="40" stroke-linecap="round" stroke-miterlimit="10" d="M538.422 238.626s-37 2.154-37-40v-171" stroke-dasharray="233,235" stroke-dashoffset="235"/><path fill="none" stroke="#000" stroke-width="40" stroke-linecap="round" stroke-miterlimit="10" stroke-dasharray="39,41" stroke-dashoffset="41" d="M502.422 70.626h39"/></svg></svg>