<svg data-name="Logo — FIXED" xmlns="http://www.w3.org/2000/svg" viewBox="0 0 151 122.72"><path d="M146.83 2.27a62 62 0 0 1-19.67 7.52A31 31 0 0 0 73.56 31a30.45 30.45 0 0 0 .81 7A87.93 87.93 0 0 1 10.51 5.67 31 31 0 0 0 20.1 47a30.68 30.68 0 0 1-14-3.87v.39a31 31 0 0 0 24.82 30.4A31 31 0 0 1 22.75 75a30.07 30.07 0 0 1-5.82-.56A31 31 0 0 0 45.87 96a62.17 62.17 0 0 1-38.48 13.23A62.15 62.15 0 0 1 0 108.8a87.68 87.68 0 0 0 47.49 13.92c57 0 88.14-47.21 88.14-88.15 0-1.34 0-2.67-.08-4a63.17 63.17 0 0 0 15.45-16 62 62 0 0 1-17.79 4.88 31.12 31.12 0 0 0 13.62-17.18z" fill="#fff"/></svg>